<?xml version="1.0" encoding="iso-8859-1"?>
<!-- Generator: Adobe Illustrator 19.0.0, SVG Export Plug-In . SVG Version: 6.00 Build 0)  -->
<svg version="1.1" id="Layer_1" xmlns="http://www.w3.org/2000/svg" xmlns:xlink="http://www.w3.org/1999/xlink" x="0px" y="0px"
	 viewBox="0 0 512 512" style="enable-background:new 0 0 512 512;" xml:space="preserve">
<g>
	<g>
		<path d="M493.882,100.441c-11.702-11.701-27.259-18.145-43.807-18.145c-16.548,0-32.161,6.444-43.862,18.145l-37.254,37.197
			V15.763c0-7.604-6.053-13.767-13.657-13.767H124.014c-3.651,0-7.153,1.451-9.735,4.032L4.087,116.166
			C1.506,118.747,0,122.249,0,125.9v370.336c0,7.604,6.274,13.767,13.877,13.767h341.425c7.604,0,13.657-6.164,13.657-13.767
			V312.868l124.867-124.813C505.528,176.353,512,160.796,512,144.248S505.583,112.143,493.882,100.441z M110.137,49v63.133H47.114
			L110.137,49z M341.425,482.47H27.534V139.668h96.48c7.604,0,13.657-6.164,13.657-13.767V29.53h203.754v135.642L187.178,319.475
			c-0.067,0.068-0.096,0.14-0.161,0.209c-1.759,1.714-3.054,3.888-3.701,6.347l-24.329,92.481c-1.246,4.735,0.12,9.776,3.584,13.239
			c2.614,2.614,6.132,4.032,9.737,4.032c1.167,0,2.346-0.149,3.504-0.453l92.481-24.338c2.457-0.647,4.631-1.955,6.347-3.713
			c0.069-0.066,0.088-0.122,0.156-0.19l66.63-66.687V482.47z M203.858,356.219l34.247,34.246l-46.478,12.231L203.858,356.219z
			 M265.112,377.885l-48.674-48.674l175.227-175.227l48.674,48.674L265.112,377.885z M474.412,168.584l-14.601,14.603
			l-48.674-48.674l14.601-14.601c6.501-6.501,15.144-10.082,24.338-10.082c9.192,0,17.837,3.581,24.338,10.082
			c6.501,6.501,10.08,15.144,10.08,24.336S480.912,162.085,474.412,168.584z"/>
	</g>
</g>
<g>
	<g>
		<path d="M117.131,408.127H77.206c-7.604,0-13.767,6.164-13.767,13.767c0,7.604,6.164,13.767,13.767,13.767h39.925
			c7.604,0,13.767-6.164,13.767-13.767C130.898,414.29,124.734,408.127,117.131,408.127z"/>
	</g>
</g>
<g>
	<g>
		<path d="M124.014,353.058H77.206c-7.604,0-13.767,6.164-13.767,13.767c0,7.604,6.164,13.767,13.767,13.767h46.808
			c7.604,0,13.767-6.164,13.767-13.767C137.782,359.222,131.618,353.058,124.014,353.058z"/>
	</g>
</g>
<g>
	<g>
		<path d="M137.782,297.99H77.206c-7.604,0-13.767,6.164-13.767,13.767c0,7.604,6.164,13.767,13.767,13.767h60.575
			c7.604,0,13.767-6.164,13.767-13.767C151.549,304.153,145.385,297.99,137.782,297.99z"/>
	</g>
</g>
<g>
	<g>
		<path d="M177.706,242.921h-100.5c-7.604,0-13.767,6.164-13.767,13.767c0,7.604,6.164,13.767,13.767,13.767h100.5
			c7.604,0,13.767-6.164,13.767-13.767C191.473,249.085,185.31,242.921,177.706,242.921z"/>
	</g>
</g>
<g>
	<g>
		<path d="M234.152,187.853H77.206c-7.604,0-13.767,6.164-13.767,13.767s6.164,13.767,13.767,13.767h156.945
			c7.604,0,13.767-6.164,13.767-13.767S241.755,187.853,234.152,187.853z"/>
	</g>
</g>
<g>
	<g>
		<path d="M297.48,132.784H179.083c-7.604,0-13.767,6.164-13.767,13.767c0,7.604,6.164,13.767,13.767,13.767H297.48
			c7.604,0,13.767-6.164,13.767-13.767C311.248,138.948,305.084,132.784,297.48,132.784z"/>
	</g>
</g>
<g>
	<g>
		<path d="M297.48,77.715H179.083c-7.604,0-13.767,6.164-13.767,13.767s6.164,13.767,13.767,13.767H297.48
			c7.604,0,13.767-6.164,13.767-13.767S305.084,77.715,297.48,77.715z"/>
	</g>
</g>
<g>
</g>
<g>
</g>
<g>
</g>
<g>
</g>
<g>
</g>
<g>
</g>
<g>
</g>
<g>
</g>
<g>
</g>
<g>
</g>
<g>
</g>
<g>
</g>
<g>
</g>
<g>
</g>
<g>
</g>
</svg>
